<svg width="238" height="238" viewBox="0 0 238 238" fill="none" xmlns="http://www.w3.org/2000/svg">
<rect width="238" height="238" rx="48" fill="#F36C21"/>
<path d="M167.926 52H70.074C61.1966 52 54 59.1634 54 68C54 76.8366 61.1966 84 70.074 84H167.926C176.803 84 184 76.8366 184 68C184 59.1634 176.803 52 167.926 52Z" fill="white"/>
<path d="M118.167 103H69.8331C61.0887 103 54 110.163 54 119C54 127.837 61.0887 135 69.8331 135H118.167C126.911 135 134 127.837 134 119C134 110.163 126.911 103 118.167 103Z" fill="white"/>
<path d="M70.0136 154C74.256 154.007 78.3221 155.698 81.3194 158.7C84.3166 161.702 86 165.771 86 170.014C85.9928 174.251 84.3062 178.313 81.3097 181.31C78.3133 184.306 74.2513 185.993 70.0136 186C65.7713 186 61.7023 184.317 58.6999 181.319C55.6975 178.322 54.0072 174.256 54 170.014V170.014C54 165.767 55.6871 161.693 58.6903 158.69C61.6934 155.687 65.7665 154 70.0136 154V154Z" fill="white"/>
</svg>
